w400r100.ufo
<glyph name="_3" format="2">
	<unicode hex="0103"/>
	<advance width="400"/>
	<outline>
		<component base="cap"/>
		<component base="cap" yOffset="-370"/>
		<contour>
			<point x="0" y="200" type="line"/>
			<point x="0" y="-170" type="line"/>
			<point x="400" y="-170" type="line"/>
			<point x="400" y="200" type="line"/>
		</contour>
	</outline>
</glyph>
<glyph name="_5" format="2">
	<unicode hex="0105"/>
	<advance width="400"/>
	<outline>
		<component base="cap"/>
		<component base="cap" yOffset="-350"/>
		<contour>
			<point x="0" y="200" type="line"/>
			<point x="0" y="-150" type="line"/>
			<point x="400" y="-150" type="line"/>
			<point x="400" y="200" type="line"/>
		</contour>
	</outline>
</glyph>
<glyph name="_22" format="2">
	<unicode hex="0116"/>
	<unicode hex="006C"/>
	<advance width="400"/>
	<outline>
		<component base="cap"/>
		<component base="cap" yOffset="-180"/>
		<contour>
			<point x="0" y="200" type="line"/>
			<point x="0" y="20" type="line"/>
			<point x="400" y="20" type="line"/>
			<point x="400" y="200" type="line"/>
		</contour>
	</outline>
</glyph>
<glyph name="_25" format="2">
	<unicode hex="0119"/>
	<advance width="400"/>
	<outline>
		<component base="cap"/>
		<component base="cap" yOffset="-150"/>
		<contour>
			<point x="0" y="200" type="line"/>
			<point x="0" y="50" type="line"/>
			<point x="400" y="50" type="line"/>
			<point x="400" y="200" type="line"/>
		</contour>
	</outline>
</glyph>
<glyph name="_26" format="2">
	<unicode hex="011A"/>
	<unicode hex="006E"/>
	<advance width="400"/>
	<outline>
		<component base="cap"/>
		<component base="cap" yOffset="-140"/>
		<contour>
			<point x="0" y="200" type="line"/>
			<point x="0" y="60" type="line"/>
			<point x="400" y="60" type="line"/>
			<point x="400" y="200" type="line"/>
		</contour>
	</outline>
</glyph>
<glyph name="_27" format="2">
	<unicode hex="011B"/>
	<advance width="400"/>
	<outline>
		<component base="cap"/>
		<component base="cap" yOffset="-130"/>
		<contour>
			<point x="0" y="200" type="line"/>
			<point x="0" y="70" type="line"/>
			<point x="400" y="70" type="line"/>
			<point x="400" y="200" type="line"/>
		</contour>
	</outline>
</glyph>
<glyph name="_39" format="2">
	<unicode hex="0127"/>
	<advance width="400"/>
	<outline>
		<component base="cap"/>
		<component base="cap" yOffset="-10"/>
		<contour>
			<point x="0" y="200" type="line"/>
			<point x="0" y="190" type="line"/>
			<point x="400" y="190" type="line"/>
			<point x="400" y="200" type="line"/>
		</contour>
	</outline>
</glyph>
<glyph name="_55" format="2">
	<unicode hex="0137"/>
	<advance width="400"/>
	<outline>
		<component base="cap"/>
		<component base="cap" yOffset="150"/>
		<contour>
			<point x="0" y="200" type="line"/>
			<point x="0" y="350" type="line"/>
			<point x="400" y="350" type="line"/>
			<point x="400" y="200" type="line"/>
		</contour>
	</outline>
</glyph>
<glyph name="_106" format="2">
	<unicode hex="016A"/>
	<advance width="400"/>
	<outline>
		<component base="cap"/>
		<component base="cap" yOffset="660"/>
		<contour>
			<point x="0" y="200" type="line"/>
			<point x="0" y="860" type="line"/>
			<point x="400" y="860" type="line"/>
			<point x="400" y="200" type="line"/>
		</contour>
	</outline>
</glyph>
<glyph name="_9.center" format="2">
	<unicode hex="0409"/>
	<advance width="400"/>
	<outline>
		<component base="cap" yOffset="455"/>
		<component base="cap" yOffset="145"/>
		<contour>
			<point x="0" y="655" type="line"/>
			<point x="0" y="345" type="line"/>
			<point x="400" y="345" type="line"/>
			<point x="400" y="655" type="line"/>
		</contour>
	</outline>
</glyph>
<glyph name="_11.center" format="2">
	<unicode hex="040B"/>
	<advance width="400"/>
	<outline>
		<component base="cap" yOffset="445"/>
		<component base="cap" yOffset="155"/>
		<contour>
			<point x="0" y="645" type="line"/>
			<point x="0" y="355" type="line"/>
			<point x="400" y="355" type="line"/>
			<point x="400" y="645" type="line"/>
		</contour>
	</outline>
</glyph>
<glyph name="_19.center" format="2">
	<unicode hex="0413"/>
	<advance width="400"/>
	<outline>
		<component base="cap" yOffset="405"/>
		<component base="cap" yOffset="195"/>
		<contour>
			<point x="0" y="605" type="line"/>
			<point x="0" y="395" type="line"/>
			<point x="400" y="395" type="line"/>
			<point x="400" y="605" type="line"/>
		</contour>
	</outline>
</glyph>
<glyph name="_23.center" format="2">
	<unicode hex="0417"/>
	<advance width="400"/>
	<outline>
		<component base="cap" yOffset="385"/>
		<component base="cap" yOffset="215"/>
		<contour>
			<point x="0" y="585" type="line"/>
			<point x="0" y="415" type="line"/>
			<point x="400" y="415" type="line"/>
			<point x="400" y="585" type="line"/>
		</contour>
	</outline>
</glyph>
<glyph name="_30.center" format="2">
	<unicode hex="041E"/>
	<advance width="400"/>
	<outline>
		<component base="cap" yOffset="350"/>
		<component base="cap" yOffset="250"/>
		<contour>
			<point x="0" y="550" type="line"/>
			<point x="0" y="450" type="line"/>
			<point x="400" y="450" type="line"/>
			<point x="400" y="550" type="line"/>
		</contour>
	</outline>
</glyph>
<glyph name="_48.center" format="2">
	<unicode hex="0430"/>
	<advance width="400"/>
	<outline>
		<component base="cap" yOffset="260"/>
		<component base="cap" yOffset="340"/>
		<contour>
			<point x="0" y="460" type="line"/>
			<point x="0" y="540" type="line"/>
			<point x="400" y="540" type="line"/>
			<point x="400" y="460" type="line"/>
		</contour>
	</outline>
</glyph>
<glyph name="_51.center" format="2">
	<unicode hex="0433"/>
	<advance width="400"/>
	<outline>
		<component base="cap" yOffset="245"/>
		<component base="cap" yOffset="355"/>
		<contour>
			<point x="0" y="445" type="line"/>
			<point x="0" y="555" type="line"/>
			<point x="400" y="555" type="line"/>
			<point x="400" y="445" type="line"/>
		</contour>
	</outline>
</glyph>
<glyph name="_71.center" format="2">
	<unicode hex="0447"/>
	<advance width="400"/>
	<outline>
		<component base="cap" yOffset="145"/>
		<component base="cap" yOffset="455"/>
		<contour>
			<point x="0" y="345" type="line"/>
			<point x="0" y="655" type="line"/>
			<point x="400" y="655" type="line"/>
			<point x="400" y="345" type="line"/>
		</contour>
	</outline>
</glyph>
<glyph name="_83.center" format="2">
	<unicode hex="0453"/>
	<advance width="400"/>
	<outline>
		<component base="cap" yOffset="85"/>
		<component base="cap" yOffset="515"/>
		<contour>
			<point x="0" y="285" type="line"/>
			<point x="0" y="715" type="line"/>
			<point x="400" y="715" type="line"/>
			<point x="400" y="285" type="line"/>
		</contour>
	</outline>
</glyph>
<glyph name="_90.center" format="2">
	<unicode hex="045A"/>
	<advance width="400"/>
	<outline>
		<component base="cap" yOffset="50"/>
		<component base="cap" yOffset="550"/>
		<contour>
			<point x="0" y="250" type="line"/>
			<point x="0" y="750" type="line"/>
			<point x="400" y="750" type="line"/>
			<point x="400" y="250" type="line"/>
		</contour>
	</outline>
</glyph>
<glyph name="_94.center" format="2">
	<unicode hex="045E"/>
	<advance width="400"/>
	<outline>
		<component base="cap" yOffset="30"/>
		<component base="cap" yOffset="570"/>
		<contour>
			<point x="0" y="230" type="line"/>
			<point x="0" y="770" type="line"/>
			<point x="400" y="770" type="line"/>
			<point x="400" y="230" type="line"/>
		</contour>
	</outline>
</glyph>
<glyph name="_10.clip.center" format="2">
	<advance width="400"/>
	<outline>
		<contour>
			<point x="0" y="527.5"/>
			<point x="22.5" y="550"/>
			<point x="50" y="550" type="curve" smooth="yes"/>
			<point x="350" y="550" type="line"/>
			<point x="377.5" y="550"/>
			<point x="400" y="527.5"/>
			<point x="400" y="500" type="curve" smooth="yes"/>
			<point x="400" y="500" type="line"/>
			<point x="400" y="472.5"/>
			<point x="377.5" y="450"/>
			<point x="350" y="450" type="curve" smooth="yes"/>
			<point x="50" y="450" type="line"/>
			<point x="22.5" y="450"/>
			<point x="0" y="472.5"/>
			<point x="0" y="500" type="curve" smooth="yes"/>
			<point x="0" y="500" type="line"/>
		</contour>
	</outline>
</glyph>
<glyph name="_28.clip.center" format="2">
	<advance width="400"/>
	<outline>
		<contour>
			<point x="0" y="577"/>
			<point x="62" y="640"/>
			<point x="140" y="640" type="curve" smooth="yes"/>
			<point x="260" y="640" type="line"/>
			<point x="337" y="640"/>
			<point x="400" y="577"/>
			<point x="400" y="500" type="curve" smooth="yes"/>
			<point x="400" y="500" type="line"/>
			<point x="400" y="423"/>
			<point x="337" y="360"/>
			<point x="260" y="360" type="curve" smooth="yes"/>
			<point x="140" y="360" type="line"/>
			<point x="62" y="360"/>
			<point x="0" y="423"/>
			<point x="0" y="500" type="curve" smooth="yes"/>
			<point x="0" y="500" type="line"/>
		</contour>
	</outline>
</glyph>
<glyph name="_30.clip.center" format="2">
	<advance width="400"/>
	<outline>
		<contour>
			<point x="0" y="582.5"/>
			<point x="67.5" y="650"/>
			<point x="150" y="650" type="curve" smooth="yes"/>
			<point x="250" y="650" type="line"/>
			<point x="332.5" y="650"/>
			<point x="400" y="582.5"/>
			<point x="400" y="500" type="curve" smooth="yes"/>
			<point x="400" y="500" type="line"/>
			<point x="400" y="417.5"/>
			<point x="332.5" y="350"/>
			<point x="250" y="350" type="curve" smooth="yes"/>
			<point x="150" y="350" type="line"/>
			<point x="67.5" y="350"/>
			<point x="0" y="417.5"/>
			<point x="0" y="500" type="curve" smooth="yes"/>
			<point x="0" y="500" type="line"/>
		</contour>
	</outline>
</glyph>
<glyph name="_8.clip" format="2">
	<advance width="400"/>
	<outline>
		<contour>
			<point x="0" y="62"/>
			<point x="18" y="80"/>
			<point x="40" y="80" type="curve" smooth="yes"/>
			<point x="360" y="80" type="line"/>
			<point x="382" y="80"/>
			<point x="400" y="62"/>
			<point x="400" y="40" type="curve" smooth="yes"/>
			<point x="400" y="40" type="line"/>
			<point x="400" y="18"/>
			<point x="382" y="0"/>
			<point x="360" y="0" type="curve" smooth="yes"/>
			<point x="40" y="0" type="line"/>
			<point x="18" y="0"/>
			<point x="0" y="18"/>
			<point x="0" y="40" type="curve" smooth="yes"/>
			<point x="0" y="40" type="line"/>
		</contour>
	</outline>
</glyph>
